<svg width="186" height="1135" viewBox="0 0 186 1135" fill="none" xmlns="http://www.w3.org/2000/svg">
<rect x="63.2062" y="-48" width="144.541" height="144.541" rx="8" transform="rotate(45 63.2062 -48)" fill="#ECFFE6"/>
<rect x="129.979" y="124" width="77.7522" height="77.7522" rx="8" transform="rotate(45 129.979 124)" fill="url(#paint0_linear_33_164)"/>
<rect x="35.0284" y="179" width="39.6382" height="39.6382" rx="8" transform="rotate(45 35.0284 179)" fill="url(#paint1_linear_33_164)"/>
<rect x="90.0142" y="261" width="21.2333" height="21.2333" rx="8" transform="rotate(45 90.0142 261)" fill="#E6FFEE"/>
<rect x="50.0142" y="336" width="21.2333" height="21.2333" rx="8" transform="rotate(45 50.0142 336)" fill="#E6FFEE"/>
<rect x="22.0142" y="845" width="21.2333" height="21.2333" rx="8" transform="rotate(45 22.0142 845)" fill="#E6FFEE"/>
<rect x="115.014" y="529" width="21.2333" height="21.2333" rx="8" transform="rotate(45 115.014 529)" fill="#E6FFEE"/>
<defs>
<linearGradient id="paint0_linear_33_164" x1="168.855" y1="124" x2="168.855" y2="201.752" gradientUnits="userSpaceOnUse">
<stop stop-color="#ECFFE5"/>
<stop offset="1" stop-color="#E6FFEA"/>
</linearGradient>
<linearGradient id="paint1_linear_33_164" x1="54.8476" y1="179" x2="54.8476" y2="218.638" gradientUnits="userSpaceOnUse">
<stop stop-color="#ECFFE5"/>
<stop offset="1" stop-color="#E6FFEA"/>
</linearGradient>
</defs>
</svg>
